HIERARCHY
ROOT Hips
{
    OFFSET 0.000000 0.000000 0.000000
    CHANNELS 6 Xposition Yposition Zposition Zrotation Xrotation Yrotation
    JOINT Spine
    {
        OFFSET -0.000000 14.517291 0.000000
        CHANNELS 3 Zrotation Xrotation Yrotation
        JOINT Spine1
        {
            OFFSET -0.000000 37.558300 0.000000
            CHANNELS 3 Zrotation Xrotation Yrotation
            JOINT Neck
            {
                OFFSET -0.000000 37.404057 3.400369
                CHANNELS 3 Zrotation Xrotation Yrotation
                JOINT Head
                {
                    OFFSET -0.000000 24.785618 -3.540803
                    CHANNELS 3 Zrotation Xrotation Yrotation
                    End Site
                    {
                        OFFSET -0.000000 35.408028 0.000000
                    }
                }
            }
            JOINT LeftShoulder
            {
                OFFSET 6.992933 33.973492 -0.192664
                CHANNELS 3 Zrotation Xrotation Yrotation
                JOINT LeftArm
                {
                    OFFSET 21.527611 0.000000 0.000000
                    CHANNELS 3 Zrotation Xrotation Yrotation
                    JOINT LeftForeArm
                    {
                        OFFSET 56.353916 0.000000 0.000000
                        CHANNELS 3 Zrotation Xrotation Yrotation
                        JOINT LeftHand
                        {
                            OFFSET 47.774071 0.000000 0.000000
                            CHANNELS 3 Zrotation Xrotation Yrotation
                            End Site
                            {
                                OFFSET 26.556021 0.000000 0.000000
                            }
                        }
                    }
                }
            }
            JOINT RightShoulder
            {
                OFFSET -7.065357 33.973492 -0.192664
                CHANNELS 3 Zrotation Xrotation Yrotation
                JOINT RightArm
                {
                    OFFSET -21.527611 0.000000 0.000000
                    CHANNELS 3 Zrotation Xrotation Yrotation
                    JOINT RightForeArm
                    {
                        OFFSET -56.353916 0.000000 0.000000
                        CHANNELS 3 Zrotation Xrotation Yrotation
                        JOINT RightHand
                        {
                            OFFSET -47.774071 0.000000 0.000000
                            CHANNELS 3 Zrotation Xrotation Yrotation
                            End Site
                            {
                                OFFSET -26.556021 0.000000 0.000000
                            }
                        }
                    }
                }
            }
        }
    }
    JOINT LeftUpLeg
    {
        OFFSET 17.704014 0.000000 0.000000
        CHANNELS 3 Zrotation Xrotation Yrotation
        JOINT LeftLeg
        {
            OFFSET -0.000000 -81.181816 0.000000
            CHANNELS 3 Zrotation Xrotation Yrotation
            JOINT LeftFoot
            {
                OFFSET -0.000000 -62.821102 0.000000
                CHANNELS 3 Zrotation Xrotation Yrotation
                JOINT LeftToeBase
                {
                    OFFSET -0.000000 -11.507608 26.556021
                    CHANNELS 3 Zrotation Xrotation Yrotation
                    End Site
                    {
                        OFFSET -0.000000 0.000000 7.081605
                    }
                }
            }
        }
    }
    JOINT RightUpLeg
    {
        OFFSET -17.704014 0.000000 0.000000
        CHANNELS 3 Zrotation Xrotation Yrotation
        JOINT RightLeg
        {
            OFFSET -0.000000 -81.181816 0.000000
            CHANNELS 3 Zrotation Xrotation Yrotation
            JOINT RightFoot
            {
                OFFSET -0.000000 -62.821102 0.000000
                CHANNELS 3 Zrotation Xrotation Yrotation
                JOINT RightToeBase
                {
                    OFFSET -0.000000 -11.507608 26.556021
                    CHANNELS 3 Zrotation Xrotation Yrotation
                    End Site
                    {
                        OFFSET -0.000000 0.000000 7.081605
                    }
                }
            }
        }
    }
}
MOTION
Frames:    5
Frame Time:    0.008333
2.736207    155.251816    -31.876961    -0.460791    -4.221612    -29.066019    1.222438    0.901321    2.056874    -0.790205    0.623820    0.692151    14.556723    1.375015    13.005910    -7.467238    0.084217    10.495200    0.097235    10.893403    -11.768444    -37.962269    31.730879    -36.445004    18.756130    -34.242928    0.383992    -24.397976    -29.365067    -26.358603    -3.847852    5.841679    -2.265385    36.052010    11.649351    73.610085    4.897186    -10.422425    99.948418    11.095425    -14.639405    15.537408    14.928648    -19.032434    0.130491    -14.315911    20.908859    7.304846    -4.985180    2.089082    22.380938    0.000000    0.000000    0.000000    -12.906951    5.094604    -3.263664    8.855330    29.652924    1.300429    1.695045    -26.676712    -20.164532    0.000000    0.000000    0.000000    
2.737672    155.245834    -31.875933    -0.461380    -4.226295    -29.058760    1.213831    0.899190    2.053517    -0.781968    0.642536    0.691021    14.564778    1.388119    13.005584    -7.490934    0.051997    10.490063    0.095792    10.895107    -11.773927    -37.968575    31.717562    -36.430374    18.747557    -34.230320    0.402663    -24.387527    -29.360876    -26.337528    -3.836573    5.837133    -2.266966    36.046806    11.638660    73.604599    4.899255    -10.413465    99.943146    11.119459    -14.627524    15.555133    14.926907    -19.032433    0.158330    -14.313470    20.917389    7.289717    -4.990342    2.082680    22.369513    0.000000    0.000000    0.000000    -12.909955    5.103102    -3.319154    8.831904    29.654299    1.331049    1.694603    -26.684917    -20.166225    0.000000    0.000000    0.000000    
2.738361    155.246552    -31.873243    -0.456108    -4.230432    -29.056072    1.205521    0.886766    2.048745    -0.779676    0.673339    0.689549    14.564952    1.390298    13.008393    -7.497324    0.035190    10.491267    0.088154    10.897296    -11.769058    -37.946537    31.722618    -36.425739    18.734966    -34.227047    0.415132    -24.337490    -29.372002    -26.326994    -3.832548    5.838671    -2.264710    36.034687    11.632502    73.606071    4.894368    -10.430138    99.940628    11.138404    -14.632459    15.585020    14.920905    -19.019726    0.182581    -14.311571    20.896593    7.266390    -4.976558    2.092062    22.377663    0.000000    0.000000    0.000000    -12.919978    5.106445    -3.362699    8.809240    29.659872    1.354439    1.709782    -26.676952    -20.125963    0.000000    0.000000    0.000000    
2.741846    155.247086    -31.870764    -0.450503    -4.235365    -29.050018    1.194534    0.882361    2.043582    -0.775746    0.690142    0.687903    14.563510    1.388722    13.003981    -7.497185    0.028643    10.486248    0.092693    10.902333    -11.767952    -37.950657    31.703300    -36.422188    18.714350    -34.209339    0.437856    -24.312122    -29.362692    -26.323282    -3.827104    5.853283    -2.269051    36.039974    11.616877    73.611023    4.900425    -10.419506    99.939674    11.107165    -14.634528    15.569076    14.912374    -19.005850    0.189534    -14.304532    20.872961    7.235692    -4.976546    2.097784    22.374573    0.000000    0.000000    0.000000    -12.933846    5.085271    -3.397184    8.805504    29.714754    1.366891    1.728808    -26.666243    -20.114677    0.000000    0.000000    0.000000    
2.745185    155.251602    -31.870630    -0.439069    -4.227870    -29.043877    1.187744    0.858887    2.037701    -0.772626    0.714478    0.685975    14.553210    1.373482    13.006327    -7.480263    0.042882    10.491421    0.085690    10.900393    -11.771353    -37.943821    31.708027    -36.398129    18.704504    -34.219616    0.442304    -24.311554    -29.373228    -26.328449    -3.829246    5.848547    -2.262626    36.049744    11.626583    73.595993    4.893769    -10.424519    99.935501    11.115740    -14.631477    15.556677    14.900264    -19.009802    0.202024    -14.288046    20.857815    7.223217    -4.978900    2.111709    22.371969    0.000000    0.000000    0.000000    -12.940795    5.075222    -3.412082    8.799931    29.712187    1.360260    1.726319    -26.654337    -20.101536    0.000000    0.000000    0.000000    
